# xmcd CD database file
#
# Track frame offsets:
#	150
#	36444
#	70413
#	108124
#	130351
#	144312
#	162866
#	177035
#	199698
#	214114
#	237385
#	264357
#
# Disc length: 3884 seconds
#
# Revision: 4
# Processed by: cddbd v1.5.2PL0 Copyright (c) Steve Scherf et al.
# Submitted via: CDex 1.81
#
DISCID=aa0f2a0c
DTITLE=Gregory Porter - Take Me To The Alley (Deluxe Edition) [CD+DVD]
DYEAR=2016
DGENRE=Jazz
TTITLE0=Gregory Porter - Holding On
TTITLE1=Gregory Porter - Don't Lose Your Steam
TTITLE2=Gregory Porter - Take Me To The Alley
TTITLE3=Gregory Porter - Daydream
TTITLE4=Gregory Porter - Consequence Of Love
TTITLE5=Gregory Porter - In Fashion
TTITLE6=Gregory Porter - More Than A Woman
TTITLE7=Gregory Porter - In Heaven
TTITLE8=Gregory Porter - Insanity
TTITLE9=Gregory Porter - Don't Be A Fool
TTITLE10=Gregory Porter - Fan The Flames
TTITLE11=Gregory Porter - French African Queen
EXTD=YEAR: 2016
EXTT0=
EXTT1=
EXTT2=
EXTT3=
EXTT4=
EXTT5=
EXTT6=
EXTT7=
EXTT8=
EXTT9=
EXTT10=
EXTT11=
PLAYORDER=
